<svg xmlns="http://www.w3.org/2000/svg" xmlns:xlink="http://www.w3.org/1999/xlink" width="1080" zoomAndPan="magnify" viewBox="0 0 810 1012.49997" height="1350" preserveAspectRatio="xMidYMid meet" version="1.0"><defs><clipPath id="ab6657c6f6"><path d="M 332 170.046875 L 740.714844 170.046875 L 740.714844 579 L 332 579 Z M 332 170.046875 " clip-rule="nonzero"/></clipPath><clipPath id="b3aa760e29"><path d="M 69.046875 299 L 612 299 L 612 841.714844 L 69.046875 841.714844 Z M 69.046875 299 " clip-rule="nonzero"/></clipPath></defs><g clip-path="url(#ab6657c6f6)"><path fill="#2a7abd" d="M 536.660156 492.472656 C 471.425781 492.472656 418.359375 439.40625 418.359375 374.175781 C 418.359375 308.941406 471.425781 255.875 536.660156 255.875 C 601.890625 255.875 654.957031 308.941406 654.957031 374.175781 C 654.957031 439.40625 601.890625 492.472656 536.660156 492.472656 Z M 721.550781 478.742188 L 740.773438 432.96875 L 699.742188 408.132812 C 696.667969 406.273438 695.03125 402.730469 695.578125 399.1875 C 696.863281 390.949219 697.527344 382.515625 697.527344 374.160156 C 697.527344 365.804688 696.863281 357.371094 695.578125 349.132812 C 695.03125 345.574219 696.667969 342.046875 699.742188 340.183594 L 740.773438 315.351562 L 721.550781 269.5625 L 675.066406 281.480469 C 671.597656 282.363281 667.921875 281.082031 665.765625 278.1875 C 656.390625 265.589844 645.242188 254.445312 632.617188 245.039062 C 629.738281 242.898438 628.441406 239.222656 629.339844 235.738281 L 641.257812 189.269531 L 595.46875 170.046875 L 570.632812 211.0625 C 568.773438 214.136719 565.246094 215.789062 561.699219 215.226562 C 545.222656 212.660156 528.09375 212.660156 511.632812 215.226562 C 508.074219 215.773438 504.546875 214.136719 502.683594 211.0625 L 477.851562 170.046875 L 432.0625 189.269531 L 443.992188 235.738281 C 444.878906 239.222656 443.578125 242.898438 440.699219 245.039062 C 428.078125 254.429688 416.929688 265.578125 407.550781 278.1875 C 405.410156 281.066406 401.71875 282.363281 398.25 281.480469 L 351.785156 269.5625 L 332.546875 315.351562 L 373.578125 340.183594 C 376.648438 342.046875 378.289062 345.589844 377.742188 349.132812 C 376.457031 357.371094 375.792969 365.804688 375.792969 374.160156 C 375.792969 382.515625 376.457031 390.949219 377.742188 399.1875 C 378.289062 402.730469 376.648438 406.273438 373.578125 408.132812 L 332.546875 432.96875 L 351.785156 478.742188 L 398.25 466.828125 C 401.734375 465.941406 405.410156 467.238281 407.550781 470.117188 C 416.929688 482.714844 428.074219 493.863281 440.699219 503.253906 C 443.578125 505.40625 444.878906 509.085938 443.992188 512.554688 L 432.0625 559.019531 L 477.851562 578.246094 L 502.683594 537.226562 C 504.546875 534.15625 508.074219 532.5 511.632812 533.0625 C 528.109375 535.632812 545.207031 535.632812 561.699219 533.0625 C 562.160156 532.988281 562.617188 532.960938 563.058594 532.960938 C 566.128906 532.960938 569.023438 534.554688 570.632812 537.226562 L 595.46875 578.246094 L 641.257812 559.019531 L 629.339844 512.554688 C 628.441406 509.070312 629.738281 505.394531 632.617188 503.253906 C 645.242188 493.863281 656.390625 482.714844 665.765625 470.117188 C 667.921875 467.238281 671.597656 465.941406 675.066406 466.828125 Z M 721.550781 478.742188 " fill-opacity="1" fill-rule="evenodd"/></g><g clip-path="url(#b3aa760e29)"><path fill="#1d5074" d="M 187.816406 570.625 C 187.816406 493.863281 244.738281 429.265625 320.554688 419.519531 L 359.417969 395.996094 C 358.53125 388.761719 358.074219 381.4375 358.074219 374.160156 C 358.074219 368.695312 358.324219 363.21875 358.828125 357.757812 C 341.566406 356.265625 323.96875 356.839844 306.929688 359.5 C 303.382812 360.042969 299.855469 358.40625 297.996094 355.335938 L 264.183594 299.507812 L 199.777344 326.570312 L 215.988281 389.8125 C 216.890625 393.296875 215.589844 396.972656 212.695312 399.113281 C 195.953125 411.589844 181.128906 426.398438 168.667969 443.128906 C 166.527344 446.007812 162.847656 447.320312 159.363281 446.421875 L 96.125 430.195312 L 69.0625 494.613281 L 124.902344 528.410156 C 127.972656 530.273438 129.628906 533.816406 129.066406 537.359375 C 127.355469 548.316406 126.484375 559.507812 126.484375 570.609375 C 126.484375 581.714844 127.355469 592.90625 129.066406 603.863281 C 129.628906 607.40625 127.972656 610.949219 124.902344 612.808594 L 69.0625 646.605469 L 96.125 711.027344 L 159.363281 694.816406 C 162.847656 693.914062 166.527344 695.214844 168.667969 698.109375 C 181.144531 714.851562 195.953125 729.660156 212.695312 742.125 C 215.589844 744.277344 216.890625 747.957031 215.988281 751.441406 L 199.777344 814.679688 L 264.183594 841.730469 L 297.996094 785.902344 C 299.855469 782.832031 303.382812 781.175781 306.929688 781.738281 C 328.824219 785.164062 351.5625 785.148438 373.445312 781.738281 C 376.988281 781.175781 380.53125 782.832031 382.394531 785.902344 L 416.191406 841.730469 L 480.609375 814.679688 L 464.382812 751.425781 C 463.496094 747.957031 464.796875 744.265625 467.675781 742.125 C 484.433594 729.648438 499.246094 714.835938 511.707031 698.109375 C 513.847656 695.230469 517.523438 693.929688 521.007812 694.816406 L 584.246094 711.027344 L 611.3125 646.605469 L 555.46875 612.808594 C 552.398438 610.949219 550.761719 607.40625 551.304688 603.863281 C 553.019531 592.90625 553.890625 581.714844 553.890625 570.609375 C 553.890625 564.410156 553.59375 558.179688 553.0625 551.976562 C 540.351562 553.128906 527.476562 552.9375 514.820312 551.402344 L 491.300781 590.25 C 481.554688 666.066406 416.941406 722.988281 340.179688 722.988281 C 256.164062 722.988281 187.816406 654.640625 187.816406 570.609375 Z M 187.816406 570.625 " fill-opacity="1" fill-rule="evenodd"/></g></svg>