<svg xmlns="http://www.w3.org/2000/svg" xmlns:xlink="http://www.w3.org/1999/xlink" width="1080" zoomAndPan="magnify" viewBox="0 0 810 1012.49997" height="1350" preserveAspectRatio="xMidYMid meet" version="1.0"><defs><g/><clipPath id="f3850561f3"><path d="M 332 170.046875 L 740.714844 170.046875 L 740.714844 579 L 332 579 Z M 332 170.046875 " clip-rule="nonzero"/></clipPath><clipPath id="6547ecbf2a"><path d="M 69.046875 299 L 612 299 L 612 841.714844 L 69.046875 841.714844 Z M 69.046875 299 " clip-rule="nonzero"/></clipPath><clipPath id="3d3c45cd26"><rect x="0" width="619" y="0" height="165"/></clipPath><clipPath id="c0b0ee9299"><rect x="0" width="245" y="0" height="37"/></clipPath></defs><g clip-path="url(#f3850561f3)"><path fill="#2a7abd" d="M 536.660156 492.472656 C 471.425781 492.472656 418.359375 439.40625 418.359375 374.175781 C 418.359375 308.941406 471.425781 255.875 536.660156 255.875 C 601.890625 255.875 654.957031 308.941406 654.957031 374.175781 C 654.957031 439.40625 601.890625 492.472656 536.660156 492.472656 Z M 721.550781 478.742188 L 740.773438 432.96875 L 699.742188 408.132812 C 696.667969 406.273438 695.03125 402.730469 695.578125 399.1875 C 696.863281 390.949219 697.527344 382.515625 697.527344 374.160156 C 697.527344 365.804688 696.863281 357.371094 695.578125 349.132812 C 695.03125 345.574219 696.667969 342.046875 699.742188 340.183594 L 740.773438 315.351562 L 721.550781 269.5625 L 675.066406 281.480469 C 671.597656 282.363281 667.921875 281.082031 665.765625 278.1875 C 656.390625 265.589844 645.242188 254.445312 632.617188 245.039062 C 629.738281 242.898438 628.441406 239.222656 629.339844 235.738281 L 641.257812 189.269531 L 595.46875 170.046875 L 570.632812 211.0625 C 568.773438 214.136719 565.246094 215.789062 561.699219 215.226562 C 545.222656 212.660156 528.09375 212.660156 511.632812 215.226562 C 508.074219 215.773438 504.546875 214.136719 502.683594 211.0625 L 477.851562 170.046875 L 432.0625 189.269531 L 443.992188 235.738281 C 444.878906 239.222656 443.578125 242.898438 440.699219 245.039062 C 428.078125 254.429688 416.929688 265.578125 407.550781 278.1875 C 405.410156 281.066406 401.71875 282.363281 398.25 281.480469 L 351.785156 269.5625 L 332.546875 315.351562 L 373.578125 340.183594 C 376.648438 342.046875 378.289062 345.589844 377.742188 349.132812 C 376.457031 357.371094 375.792969 365.804688 375.792969 374.160156 C 375.792969 382.515625 376.457031 390.949219 377.742188 399.1875 C 378.289062 402.730469 376.648438 406.273438 373.578125 408.132812 L 332.546875 432.96875 L 351.785156 478.742188 L 398.25 466.828125 C 401.734375 465.941406 405.410156 467.238281 407.550781 470.117188 C 416.929688 482.714844 428.074219 493.863281 440.699219 503.253906 C 443.578125 505.40625 444.878906 509.085938 443.992188 512.554688 L 432.0625 559.019531 L 477.851562 578.246094 L 502.683594 537.226562 C 504.546875 534.15625 508.074219 532.5 511.632812 533.0625 C 528.109375 535.632812 545.207031 535.632812 561.699219 533.0625 C 562.160156 532.988281 562.617188 532.960938 563.058594 532.960938 C 566.128906 532.960938 569.023438 534.554688 570.632812 537.226562 L 595.46875 578.246094 L 641.257812 559.019531 L 629.339844 512.554688 C 628.441406 509.070312 629.738281 505.394531 632.617188 503.253906 C 645.242188 493.863281 656.390625 482.714844 665.765625 470.117188 C 667.921875 467.238281 671.597656 465.941406 675.066406 466.828125 Z M 721.550781 478.742188 " fill-opacity="1" fill-rule="evenodd"/></g><g clip-path="url(#6547ecbf2a)"><path fill="#1d5074" d="M 187.816406 570.625 C 187.816406 493.863281 244.738281 429.265625 320.554688 419.519531 L 359.417969 395.996094 C 358.53125 388.761719 358.074219 381.4375 358.074219 374.160156 C 358.074219 368.695312 358.324219 363.21875 358.828125 357.757812 C 341.566406 356.265625 323.96875 356.839844 306.929688 359.5 C 303.382812 360.042969 299.855469 358.40625 297.996094 355.335938 L 264.183594 299.507812 L 199.777344 326.570312 L 215.988281 389.8125 C 216.890625 393.296875 215.589844 396.972656 212.695312 399.113281 C 195.953125 411.589844 181.128906 426.398438 168.667969 443.128906 C 166.527344 446.007812 162.847656 447.320312 159.363281 446.421875 L 96.125 430.195312 L 69.0625 494.613281 L 124.902344 528.410156 C 127.972656 530.273438 129.628906 533.816406 129.066406 537.359375 C 127.355469 548.316406 126.484375 559.507812 126.484375 570.609375 C 126.484375 581.714844 127.355469 592.90625 129.066406 603.863281 C 129.628906 607.40625 127.972656 610.949219 124.902344 612.808594 L 69.0625 646.605469 L 96.125 711.027344 L 159.363281 694.816406 C 162.847656 693.914062 166.527344 695.214844 168.667969 698.109375 C 181.144531 714.851562 195.953125 729.660156 212.695312 742.125 C 215.589844 744.277344 216.890625 747.957031 215.988281 751.441406 L 199.777344 814.679688 L 264.183594 841.730469 L 297.996094 785.902344 C 299.855469 782.832031 303.382812 781.175781 306.929688 781.738281 C 328.824219 785.164062 351.5625 785.148438 373.445312 781.738281 C 376.988281 781.175781 380.53125 782.832031 382.394531 785.902344 L 416.191406 841.730469 L 480.609375 814.679688 L 464.382812 751.425781 C 463.496094 747.957031 464.796875 744.265625 467.675781 742.125 C 484.433594 729.648438 499.246094 714.835938 511.707031 698.109375 C 513.847656 695.230469 517.523438 693.929688 521.007812 694.816406 L 584.246094 711.027344 L 611.3125 646.605469 L 555.46875 612.808594 C 552.398438 610.949219 550.761719 607.40625 551.304688 603.863281 C 553.019531 592.90625 553.890625 581.714844 553.890625 570.609375 C 553.890625 564.410156 553.59375 558.179688 553.0625 551.976562 C 540.351562 553.128906 527.476562 552.9375 514.820312 551.402344 L 491.300781 590.25 C 481.554688 666.066406 416.941406 722.988281 340.179688 722.988281 C 256.164062 722.988281 187.816406 654.640625 187.816406 570.609375 Z M 187.816406 570.625 " fill-opacity="1" fill-rule="evenodd"/></g><g transform="matrix(1, 0, 0, 1, 95, 500)"><g clip-path="url(#3d3c45cd26)"><g fill="#ffffff" fill-opacity="1"><g transform="translate(1.56238, 127.610546)"><g><path d="M 95.140625 0 L 66.375 0 L 78.296875 -56 L 47.578125 0 L 29.9375 0 L 24.109375 -57.9375 L 11.671875 0 L 0 0 L 17.5 -82.3125 L 50.546875 -82.3125 L 54.578125 -35.90625 L 79.453125 -82.3125 L 112.78125 -82.3125 Z M 95.140625 0 "/></g></g></g><g fill="#ffffff" fill-opacity="1"><g transform="translate(110.179134, 127.610546)"><g><path d="M 28.265625 -26.046875 C 27.910156 -24.148438 27.664062 -22.335938 27.53125 -20.609375 C 27.40625 -18.878906 27.34375 -17.320312 27.34375 -15.9375 C 27.34375 -15.164062 27.382812 -14.300781 27.46875 -13.34375 C 27.5625 -12.394531 27.757812 -11.507812 28.0625 -10.6875 C 28.363281 -9.875 28.796875 -9.1875 29.359375 -8.625 C 29.921875 -8.0625 30.722656 -7.78125 31.765625 -7.78125 C 32.535156 -7.78125 33.414062 -8.035156 34.40625 -8.546875 C 35.40625 -9.066406 36.398438 -9.800781 37.390625 -10.75 C 38.390625 -11.707031 39.34375 -12.875 40.25 -14.25 C 41.15625 -15.632812 41.867188 -17.191406 42.390625 -18.921875 L 63.640625 -18.921875 L 60.28125 -5.0625 C 58.550781 -3.9375 56.5625 -2.984375 54.3125 -2.203125 C 52.0625 -1.421875 49.679688 -0.789062 47.171875 -0.3125 C 44.671875 0.15625 42.125 0.492188 39.53125 0.703125 C 36.9375 0.921875 34.472656 1.03125 32.140625 1.03125 C 27.828125 1.03125 23.8125 0.644531 20.09375 -0.125 C 16.375 -0.90625 13.128906 -2.242188 10.359375 -4.140625 C 7.597656 -6.046875 5.414062 -8.578125 3.8125 -11.734375 C 2.21875 -14.890625 1.421875 -18.800781 1.421875 -23.46875 C 1.421875 -27.695312 2.085938 -31.84375 3.421875 -35.90625 C 4.765625 -39.96875 7.015625 -43.578125 10.171875 -46.734375 C 13.328125 -49.890625 17.5625 -52.414062 22.875 -54.3125 C 28.1875 -56.21875 34.820312 -57.171875 42.78125 -57.171875 C 51.414062 -57.171875 57.914062 -55.828125 62.28125 -53.140625 C 66.644531 -50.460938 68.828125 -46.273438 68.828125 -40.578125 C 68.828125 -38.242188 68.476562 -35.710938 67.78125 -32.984375 C 67.09375 -30.265625 66.0625 -27.953125 64.6875 -26.046875 Z M 45.5 -41.484375 C 45.5 -44.160156 45.066406 -45.972656 44.203125 -46.921875 C 43.335938 -47.867188 42.300781 -48.34375 41.09375 -48.34375 C 39.707031 -48.34375 38.429688 -47.890625 37.265625 -46.984375 C 36.097656 -46.078125 35.039062 -44.867188 34.09375 -43.359375 C 33.144531 -41.847656 32.28125 -40.117188 31.5 -38.171875 C 30.71875 -36.234375 30.066406 -34.179688 29.546875 -32.015625 L 44.328125 -32.015625 C 44.503906 -33.054688 44.675781 -34.140625 44.84375 -35.265625 C 45.019531 -36.210938 45.171875 -37.242188 45.296875 -38.359375 C 45.429688 -39.484375 45.5 -40.523438 45.5 -41.484375 Z M 45.5 -41.484375 "/></g></g></g><g fill="#ffffff" fill-opacity="1"><g transform="translate(180.430056, 127.610546)"><g><path d="M 5.96875 -55.734375 C 9.164062 -56.429688 11.972656 -57.210938 14.390625 -58.078125 C 16.804688 -58.941406 19.03125 -60.019531 21.0625 -61.3125 C 23.09375 -62.601562 25.035156 -64.195312 26.890625 -66.09375 C 28.753906 -68 30.765625 -70.335938 32.921875 -73.109375 L 46.28125 -73.109375 L 42.515625 -55.734375 L 52.625 -55.734375 L 50.9375 -47.046875 L 40.703125 -47.046875 L 35.390625 -21.78125 C 34.953125 -19.789062 34.601562 -18.015625 34.34375 -16.453125 C 34.09375 -14.898438 33.96875 -13.691406 33.96875 -12.828125 C 33.96875 -11.097656 34.59375 -10.015625 35.84375 -9.578125 C 37.09375 -9.148438 39.445312 -8.9375 42.90625 -8.9375 L 40.96875 0 C 40.351562 0.175781 39.421875 0.304688 38.171875 0.390625 C 36.921875 0.472656 35.539062 0.578125 34.03125 0.703125 C 32.519531 0.835938 30.960938 0.925781 29.359375 0.96875 C 27.765625 1.007812 26.359375 1.03125 25.140625 1.03125 C 22.984375 1.03125 20.867188 0.878906 18.796875 0.578125 C 16.722656 0.273438 14.863281 -0.328125 13.21875 -1.234375 C 11.582031 -2.140625 10.265625 -3.457031 9.265625 -5.1875 C 8.273438 -6.914062 7.78125 -9.25 7.78125 -12.1875 C 7.78125 -13.21875 7.84375 -14.507812 7.96875 -16.0625 C 8.101562 -17.625 8.382812 -19.359375 8.8125 -21.265625 L 14.265625 -47.046875 L 4.140625 -47.046875 Z M 5.96875 -55.734375 "/></g></g></g><g fill="#ffffff" fill-opacity="1"><g transform="translate(231.238886, 127.610546)"><g><path d="M 9.328125 -50.9375 C 13.734375 -53.101562 18.25 -54.679688 22.875 -55.671875 C 27.5 -56.671875 32.664062 -57.171875 38.375 -57.171875 C 43.90625 -57.171875 48.484375 -56.738281 52.109375 -55.875 C 55.734375 -55.007812 58.625 -53.753906 60.78125 -52.109375 C 62.945312 -50.460938 64.460938 -48.515625 65.328125 -46.265625 C 66.191406 -44.023438 66.625 -41.476562 66.625 -38.625 C 66.625 -36.988281 66.515625 -35.21875 66.296875 -33.3125 C 66.085938 -31.414062 65.851562 -29.816406 65.59375 -28.515625 L 59.5 0 L 38.625 0 L 36.296875 -8.296875 L 35.515625 -8.296875 C 32.753906 -5.273438 29.535156 -2.960938 25.859375 -1.359375 C 22.179688 0.234375 18.53125 1.03125 14.90625 1.03125 C 12.832031 1.03125 10.800781 0.726562 8.8125 0.125 C 6.820312 -0.476562 5.050781 -1.40625 3.5 -2.65625 C 1.945312 -3.90625 0.695312 -5.503906 -0.25 -7.453125 C -1.207031 -9.398438 -1.6875 -11.753906 -1.6875 -14.515625 C -1.6875 -19.015625 -0.457031 -22.582031 2 -25.21875 C 4.46875 -27.851562 7.710938 -29.835938 11.734375 -31.171875 C 15.753906 -32.515625 20.289062 -33.359375 25.34375 -33.703125 C 30.394531 -34.046875 35.472656 -34.21875 40.578125 -34.21875 C 40.742188 -35.082031 40.957031 -36.3125 41.21875 -37.90625 C 41.476562 -39.507812 41.609375 -40.914062 41.609375 -42.125 C 41.609375 -43.6875 41.195312 -45.132812 40.375 -46.46875 C 39.550781 -47.8125 37.847656 -48.484375 35.265625 -48.484375 C 32.234375 -48.484375 30.003906 -47.597656 28.578125 -45.828125 C 27.148438 -44.054688 26.222656 -41.914062 25.796875 -39.40625 L 6.875 -39.40625 Z M 39.140625 -28.125 L 36.8125 -28.125 C 34.300781 -28.125 32.160156 -27.800781 30.390625 -27.15625 C 28.617188 -26.507812 27.191406 -25.664062 26.109375 -24.625 C 25.035156 -23.59375 24.238281 -22.425781 23.71875 -21.125 C 23.195312 -19.832031 22.9375 -18.535156 22.9375 -17.234375 C 22.9375 -15.160156 23.476562 -13.601562 24.5625 -12.5625 C 25.644531 -11.53125 26.921875 -11.015625 28.390625 -11.015625 C 30.203125 -11.015625 31.992188 -11.660156 33.765625 -12.953125 C 35.535156 -14.253906 36.640625 -15.984375 37.078125 -18.140625 Z M 39.140625 -28.125 "/></g></g></g><g fill="#ffffff" fill-opacity="1"><g transform="translate(302.785997, 127.610546)"><g><path d="M 25.140625 0 L -1.296875 0 L 17.109375 -87.109375 L 43.6875 -87.109375 Z M 25.140625 0 "/></g></g></g><g fill="#ffffff" fill-opacity="1"><g transform="translate(340.763048, 127.610546)"><g><path d="M 78.9375 -72.453125 L 58.078125 -72.453125 L 42.640625 0 L 14.640625 0 L 30.078125 -72.453125 L 9.46875 -72.453125 L 11.796875 -82.3125 L 81.140625 -82.3125 Z M 78.9375 -72.453125 "/></g></g></g><g fill="#ffffff" fill-opacity="1"><g transform="translate(404.01395, 127.610546)"><g><path d="M 28.265625 -26.046875 C 27.910156 -24.148438 27.664062 -22.335938 27.53125 -20.609375 C 27.40625 -18.878906 27.34375 -17.320312 27.34375 -15.9375 C 27.34375 -15.164062 27.382812 -14.300781 27.46875 -13.34375 C 27.5625 -12.394531 27.757812 -11.507812 28.0625 -10.6875 C 28.363281 -9.875 28.796875 -9.1875 29.359375 -8.625 C 29.921875 -8.0625 30.722656 -7.78125 31.765625 -7.78125 C 32.535156 -7.78125 33.414062 -8.035156 34.40625 -8.546875 C 35.40625 -9.066406 36.398438 -9.800781 37.390625 -10.75 C 38.390625 -11.707031 39.34375 -12.875 40.25 -14.25 C 41.15625 -15.632812 41.867188 -17.191406 42.390625 -18.921875 L 63.640625 -18.921875 L 60.28125 -5.0625 C 58.550781 -3.9375 56.5625 -2.984375 54.3125 -2.203125 C 52.0625 -1.421875 49.679688 -0.789062 47.171875 -0.3125 C 44.671875 0.15625 42.125 0.492188 39.53125 0.703125 C 36.9375 0.921875 34.472656 1.03125 32.140625 1.03125 C 27.828125 1.03125 23.8125 0.644531 20.09375 -0.125 C 16.375 -0.90625 13.128906 -2.242188 10.359375 -4.140625 C 7.597656 -6.046875 5.414062 -8.578125 3.8125 -11.734375 C 2.21875 -14.890625 1.421875 -18.800781 1.421875 -23.46875 C 1.421875 -27.695312 2.085938 -31.84375 3.421875 -35.90625 C 4.765625 -39.96875 7.015625 -43.578125 10.171875 -46.734375 C 13.328125 -49.890625 17.5625 -52.414062 22.875 -54.3125 C 28.1875 -56.21875 34.820312 -57.171875 42.78125 -57.171875 C 51.414062 -57.171875 57.914062 -55.828125 62.28125 -53.140625 C 66.644531 -50.460938 68.828125 -46.273438 68.828125 -40.578125 C 68.828125 -38.242188 68.476562 -35.710938 67.78125 -32.984375 C 67.09375 -30.265625 66.0625 -27.953125 64.6875 -26.046875 Z M 45.5 -41.484375 C 45.5 -44.160156 45.066406 -45.972656 44.203125 -46.921875 C 43.335938 -47.867188 42.300781 -48.34375 41.09375 -48.34375 C 39.707031 -48.34375 38.429688 -47.890625 37.265625 -46.984375 C 36.097656 -46.078125 35.039062 -44.867188 34.09375 -43.359375 C 33.144531 -41.847656 32.28125 -40.117188 31.5 -38.171875 C 30.71875 -36.234375 30.066406 -34.179688 29.546875 -32.015625 L 44.328125 -32.015625 C 44.503906 -33.054688 44.675781 -34.140625 44.84375 -35.265625 C 45.019531 -36.210938 45.171875 -37.242188 45.296875 -38.359375 C 45.429688 -39.484375 45.5 -40.523438 45.5 -41.484375 Z M 45.5 -41.484375 "/></g></g></g><g fill="#ffffff" fill-opacity="1"><g transform="translate(474.913035, 127.610546)"><g><path d="M 57.546875 -3.109375 C 53.921875 -1.640625 50.097656 -0.582031 46.078125 0.0625 C 42.054688 0.707031 37.5 1.03125 32.40625 1.03125 C 27.914062 1.03125 23.789062 0.578125 20.03125 -0.328125 C 16.269531 -1.234375 13.003906 -2.675781 10.234375 -4.65625 C 7.472656 -6.644531 5.3125 -9.21875 3.75 -12.375 C 2.195312 -15.53125 1.421875 -19.351562 1.421875 -23.84375 C 1.421875 -28.507812 2.21875 -32.851562 3.8125 -36.875 C 5.414062 -40.894531 7.835938 -44.414062 11.078125 -47.4375 C 14.316406 -50.46875 18.441406 -52.847656 23.453125 -54.578125 C 28.472656 -56.304688 34.4375 -57.171875 41.34375 -57.171875 C 46.96875 -57.171875 51.851562 -56.710938 56 -55.796875 C 60.144531 -54.890625 63.554688 -52.835938 66.234375 -49.640625 L 62.609375 -33.046875 L 44.984375 -33.046875 C 45.066406 -34.523438 45.148438 -35.820312 45.234375 -36.9375 C 45.328125 -38.0625 45.375 -39.316406 45.375 -40.703125 C 45.375 -43.460938 45.066406 -45.425781 44.453125 -46.59375 C 43.847656 -47.757812 42.859375 -48.34375 41.484375 -48.34375 C 39.054688 -48.34375 36.9375 -47.15625 35.125 -44.78125 C 33.3125 -42.40625 31.820312 -39.550781 30.65625 -36.21875 C 29.488281 -32.894531 28.625 -29.394531 28.0625 -25.71875 C 27.5 -22.050781 27.21875 -18.921875 27.21875 -16.328125 C 27.21875 -15.378906 27.257812 -14.40625 27.34375 -13.40625 C 27.4375 -12.414062 27.632812 -11.488281 27.9375 -10.625 C 28.238281 -9.757812 28.644531 -9.066406 29.15625 -8.546875 C 29.675781 -8.035156 30.414062 -7.78125 31.375 -7.78125 C 32.238281 -7.78125 33.226562 -8.035156 34.34375 -8.546875 C 35.46875 -9.066406 36.546875 -9.867188 37.578125 -10.953125 C 38.617188 -12.035156 39.613281 -13.441406 40.5625 -15.171875 C 41.519531 -16.898438 42.257812 -18.972656 42.78125 -21.390625 L 61.3125 -21.390625 Z M 57.546875 -3.109375 "/></g></g></g><g fill="#ffffff" fill-opacity="1"><g transform="translate(542.442109, 127.610546)"><g><path d="M 35.265625 -47.4375 L 36.171875 -47.4375 C 37.804688 -49.082031 39.707031 -50.597656 41.875 -51.984375 C 43.6875 -53.191406 45.84375 -54.269531 48.34375 -55.21875 C 50.851562 -56.164062 53.664062 -56.640625 56.78125 -56.640625 C 61.269531 -56.640625 64.984375 -55.492188 67.921875 -53.203125 C 70.859375 -50.921875 72.328125 -47.789062 72.328125 -43.8125 C 72.328125 -42.601562 72.195312 -41.242188 71.9375 -39.734375 C 71.675781 -38.222656 71.375 -36.625 71.03125 -34.9375 C 70.6875 -33.25 70.316406 -31.5625 69.921875 -29.875 C 69.535156 -28.1875 69.210938 -26.65625 68.953125 -25.28125 L 63.515625 0 L 37.203125 0 L 44.328125 -33.828125 C 44.503906 -34.953125 44.722656 -36.097656 44.984375 -37.265625 C 45.242188 -38.429688 45.375 -39.488281 45.375 -40.4375 C 45.375 -41.738281 45.046875 -42.796875 44.390625 -43.609375 C 43.742188 -44.429688 42.773438 -44.84375 41.484375 -44.84375 C 39.921875 -44.84375 38.425781 -44.28125 37 -43.15625 C 35.582031 -42.039062 34.484375 -41.050781 33.703125 -40.1875 L 25.140625 0 L -1.296875 0 L 17.109375 -87.109375 L 43.6875 -87.109375 Z M 35.265625 -47.4375 "/></g></g></g></g></g><g transform="matrix(1, 0, 0, 1, 470, 642)"><g clip-path="url(#c0b0ee9299)"><g fill="#ffffff" fill-opacity="1"><g transform="translate(0.758002, 28.359673)"><g><path d="M 21.25 0 L 18.046875 -14.65625 L 11.875 1.21875 L 5.65625 -14.65625 L 2.484375 0 L 0.296875 0 L 5.125 -21.953125 L 11.875 -4.328125 L 18.625 -21.953125 L 23.40625 0 Z M 21.25 0 "/></g></g></g><g fill="#ffffff" fill-opacity="1"><g transform="translate(32.372122, 28.359673)"><g><path d="M 15.296875 -6.96875 L 15.296875 -5.84375 L 3.578125 -5.84375 C 3.773438 -4.695312 4.328125 -3.757812 5.234375 -3.03125 C 6.160156 -2.28125 7.191406 -1.90625 8.328125 -1.90625 C 9.097656 -1.90625 9.832031 -2.085938 10.53125 -2.453125 C 11.21875 -2.796875 11.796875 -3.28125 12.265625 -3.90625 L 14.6875 -3.90625 C 14.125 -2.632812 13.273438 -1.632812 12.140625 -0.90625 C 10.992188 -0.15625 9.832031 0.21875 8.65625 0.21875 C 7.46875 0.21875 6.457031 0.0351562 5.625 -0.328125 C 4.78125 -0.691406 4.046875 -1.1875 3.421875 -1.8125 C 2.046875 -3.144531 1.359375 -4.78125 1.359375 -6.71875 C 1.359375 -8.632812 2.046875 -10.28125 3.421875 -11.65625 C 4.773438 -13.007812 6.410156 -13.6875 8.328125 -13.6875 C 10.179688 -13.6875 11.804688 -13.03125 13.203125 -11.71875 C 14.597656 -10.382812 15.296875 -8.800781 15.296875 -6.96875 Z M 13.046875 -7.65625 C 12.804688 -8.789062 12.242188 -9.734375 11.359375 -10.484375 C 10.460938 -11.203125 9.453125 -11.5625 8.328125 -11.5625 C 6.585938 -11.5625 5.222656 -10.785156 4.234375 -9.234375 C 3.929688 -8.753906 3.722656 -8.226562 3.609375 -7.65625 Z M 13.046875 -7.65625 "/></g></g></g><g fill="#ffffff" fill-opacity="1"><g transform="translate(56.779966, 28.359673)"><g><path d="M 0.609375 -11.359375 L 0.609375 -13.328125 L 3.9375 -13.328125 L 3.9375 -18.5 L 6.0625 -18.5 L 6.0625 -13.328125 L 9.359375 -13.328125 L 9.359375 -11.359375 L 6.0625 -11.359375 L 6.0625 0 L 3.9375 0 L 3.9375 -11.359375 Z M 0.609375 -11.359375 "/></g></g></g><g fill="#ffffff" fill-opacity="1"><g transform="translate(74.647666, 28.359673)"><g><path d="M 12.875 -6.65625 C 12.875 -7.945312 12.425781 -9.078125 11.53125 -10.046875 C 10.625 -11.015625 9.503906 -11.5 8.171875 -11.5 C 6.835938 -11.5 5.726562 -11.015625 4.84375 -10.046875 C 3.9375 -9.078125 3.484375 -7.945312 3.484375 -6.65625 C 3.484375 -5.363281 3.9375 -4.234375 4.84375 -3.265625 C 5.726562 -2.296875 6.835938 -1.8125 8.171875 -1.8125 C 9.503906 -1.8125 10.625 -2.296875 11.53125 -3.265625 C 12.425781 -4.234375 12.875 -5.363281 12.875 -6.65625 Z M 14.984375 0 L 12.875 0 L 12.875 -2.265625 C 12.75 -2.109375 12.625 -1.957031 12.5 -1.8125 C 11.226562 -0.40625 9.675781 0.296875 7.84375 0.296875 C 6.007812 0.296875 4.460938 -0.40625 3.203125 -1.8125 C 1.972656 -3.1875 1.359375 -4.800781 1.359375 -6.65625 C 1.359375 -8.519531 1.972656 -10.132812 3.203125 -11.5 C 4.460938 -12.914062 6.007812 -13.625 7.84375 -13.625 C 9.675781 -13.625 11.226562 -12.914062 12.5 -11.5 C 12.625 -11.363281 12.75 -11.210938 12.875 -11.046875 L 12.875 -13.328125 L 14.984375 -13.328125 Z M 14.984375 0 "/></g></g></g><g fill="#ffffff" fill-opacity="1"><g transform="translate(99.812471, 28.359673)"><g><path d="M 4.390625 0 L 2.265625 0 L 2.265625 -22.71875 L 4.390625 -22.71875 Z M 4.390625 0 "/></g></g></g><g fill="#ffffff" fill-opacity="1"><g transform="translate(114.379814, 28.359673)"><g><path d="M 11.484375 -2.265625 C 10.492188 -0.578125 9.007812 0.265625 7.03125 0.265625 C 5.53125 0.265625 4.359375 -0.226562 3.515625 -1.21875 C 2.679688 -2.195312 2.265625 -3.457031 2.265625 -5 L 2.265625 -13.328125 L 4.390625 -13.328125 L 4.390625 -5 C 4.390625 -4.125 4.59375 -3.382812 5 -2.78125 C 5.382812 -2.15625 6.03125 -1.84375 6.9375 -1.84375 C 8.59375 -1.84375 9.765625 -2.367188 10.453125 -3.421875 C 11.140625 -4.453125 11.484375 -5.894531 11.484375 -7.75 L 11.484375 -13.328125 L 13.59375 -13.328125 L 13.59375 0 L 11.484375 0 Z M 11.484375 -2.265625 "/></g></g></g><g fill="#ffffff" fill-opacity="1"><g transform="translate(137.697633, 28.359673)"><g><path d="M 9.109375 -10.5625 C 8.628906 -11.007812 8.109375 -11.234375 7.546875 -11.234375 C 6.992188 -11.234375 6.523438 -11.082031 6.140625 -10.78125 C 5.742188 -10.457031 5.410156 -10.070312 5.140625 -9.625 C 4.640625 -8.738281 4.390625 -7.75 4.390625 -6.65625 L 4.390625 0 L 2.265625 0 L 2.265625 -13.328125 L 4.390625 -13.328125 L 4.390625 -10.5625 L 4.484375 -11.109375 C 5.191406 -12.765625 6.289062 -13.59375 7.78125 -13.59375 C 8.25 -13.59375 8.691406 -13.503906 9.109375 -13.328125 Z M 9.109375 -10.5625 "/></g></g></g><g fill="#ffffff" fill-opacity="1"><g transform="translate(155.020311, 28.359673)"><g><path d="M 13.046875 -6.65625 C 13.046875 -7.945312 12.601562 -9.078125 11.71875 -10.046875 C 10.8125 -11.015625 9.691406 -11.5 8.359375 -11.5 C 7.066406 -11.5 5.957031 -11.015625 5.03125 -10.046875 C 4.113281 -9.097656 3.65625 -7.96875 3.65625 -6.65625 C 3.65625 -5.34375 4.113281 -4.210938 5.03125 -3.265625 C 5.957031 -2.296875 7.066406 -1.8125 8.359375 -1.8125 C 9.691406 -1.8125 10.8125 -2.296875 11.71875 -3.265625 C 12.601562 -4.234375 13.046875 -5.363281 13.046875 -6.65625 Z M 3.609375 1.8125 C 3.804688 2.644531 4.238281 3.382812 4.90625 4.03125 C 5.832031 4.976562 6.953125 5.453125 8.265625 5.453125 C 9.578125 5.453125 10.707031 4.976562 11.65625 4.03125 C 12.582031 3.101562 13.046875 1.984375 13.046875 0.671875 L 13.046875 -2.234375 C 12.953125 -2.097656 12.84375 -1.957031 12.71875 -1.8125 C 11.445312 -0.40625 9.894531 0.296875 8.0625 0.296875 C 6.195312 0.296875 4.640625 -0.40625 3.390625 -1.8125 C 2.160156 -3.1875 1.546875 -4.800781 1.546875 -6.65625 C 1.546875 -8.519531 2.160156 -10.132812 3.390625 -11.5 C 4.640625 -12.914062 6.195312 -13.625 8.0625 -13.625 C 9.832031 -13.625 11.382812 -12.914062 12.71875 -11.5 C 12.84375 -11.363281 12.953125 -11.222656 13.046875 -11.078125 L 13.046875 -13.328125 L 15.171875 -13.328125 L 15.171875 0.671875 C 15.171875 2.566406 14.492188 4.191406 13.140625 5.546875 C 11.785156 6.898438 10.160156 7.578125 8.265625 7.578125 C 6.367188 7.578125 4.742188 6.898438 3.390625 5.546875 C 2.316406 4.472656 1.671875 3.226562 1.453125 1.8125 Z M 3.609375 1.8125 "/></g></g></g><g fill="#ffffff" fill-opacity="1"><g transform="translate(180.36679, 28.359673)"><g><path d="M 4.421875 -17.921875 C 4.679688 -17.660156 4.8125 -17.347656 4.8125 -16.984375 C 4.8125 -16.597656 4.679688 -16.273438 4.421875 -16.015625 C 4.160156 -15.753906 3.847656 -15.625 3.484375 -15.625 C 3.097656 -15.625 2.773438 -15.753906 2.515625 -16.015625 C 2.253906 -16.273438 2.125 -16.597656 2.125 -16.984375 C 2.125 -17.347656 2.253906 -17.660156 2.515625 -17.921875 C 2.773438 -18.179688 3.097656 -18.3125 3.484375 -18.3125 C 3.847656 -18.3125 4.160156 -18.179688 4.421875 -17.921875 Z M 4.546875 0 L 2.421875 0 L 2.421875 -13.328125 L 4.546875 -13.328125 Z M 4.546875 0 "/></g></g></g><g fill="#ffffff" fill-opacity="1"><g transform="translate(195.206624, 28.359673)"><g><path d="M 14.71875 -8.546875 L 12.421875 -8.546875 C 12.054688 -9.390625 11.488281 -10.070312 10.71875 -10.59375 C 9.945312 -11.125 9.171875 -11.390625 8.390625 -11.390625 C 7.597656 -11.390625 6.921875 -11.265625 6.359375 -11.015625 C 5.796875 -10.753906 5.3125 -10.414062 4.90625 -10 C 4 -9.039062 3.546875 -7.925781 3.546875 -6.65625 C 3.546875 -5.363281 4 -4.253906 4.90625 -3.328125 C 5.789062 -2.378906 6.878906 -1.90625 8.171875 -1.90625 C 9.023438 -1.90625 9.8125 -2.128906 10.53125 -2.578125 C 11.238281 -3.015625 11.796875 -3.609375 12.203125 -4.359375 L 14.59375 -4.359375 C 13.84375 -2.222656 12.398438 -0.789062 10.265625 -0.0625 C 9.597656 0.175781 8.84375 0.296875 8 0.296875 C 7.144531 0.296875 6.304688 0.109375 5.484375 -0.265625 C 4.648438 -0.628906 3.929688 -1.132812 3.328125 -1.78125 C 2.015625 -3.15625 1.359375 -4.78125 1.359375 -6.65625 C 1.359375 -8.5625 2.015625 -10.1875 3.328125 -11.53125 C 4.660156 -12.90625 6.273438 -13.59375 8.171875 -13.59375 C 9.710938 -13.59375 11.097656 -13.117188 12.328125 -12.171875 C 13.492188 -11.265625 14.289062 -10.054688 14.71875 -8.546875 Z M 14.71875 -8.546875 "/></g></g></g><g fill="#ffffff" fill-opacity="1"><g transform="translate(218.887792, 28.359673)"><g><path d="M 12.875 -6.65625 C 12.875 -7.945312 12.425781 -9.078125 11.53125 -10.046875 C 10.625 -11.015625 9.503906 -11.5 8.171875 -11.5 C 6.835938 -11.5 5.726562 -11.015625 4.84375 -10.046875 C 3.9375 -9.078125 3.484375 -7.945312 3.484375 -6.65625 C 3.484375 -5.363281 3.9375 -4.234375 4.84375 -3.265625 C 5.726562 -2.296875 6.835938 -1.8125 8.171875 -1.8125 C 9.503906 -1.8125 10.625 -2.296875 11.53125 -3.265625 C 12.425781 -4.234375 12.875 -5.363281 12.875 -6.65625 Z M 14.984375 0 L 12.875 0 L 12.875 -2.265625 C 12.75 -2.109375 12.625 -1.957031 12.5 -1.8125 C 11.226562 -0.40625 9.675781 0.296875 7.84375 0.296875 C 6.007812 0.296875 4.460938 -0.40625 3.203125 -1.8125 C 1.972656 -3.1875 1.359375 -4.800781 1.359375 -6.65625 C 1.359375 -8.519531 1.972656 -10.132812 3.203125 -11.5 C 4.460938 -12.914062 6.007812 -13.625 7.84375 -13.625 C 9.675781 -13.625 11.226562 -12.914062 12.5 -11.5 C 12.625 -11.363281 12.75 -11.210938 12.875 -11.046875 L 12.875 -13.328125 L 14.984375 -13.328125 Z M 14.984375 0 "/></g></g></g></g></g></svg>